<svg width="40" height="40" viewBox="0 0 40 40" fill="none" xmlns="http://www.w3.org/2000/svg">
<path d="M16.3039 35.5938C16.3039 36.098 16.1584 36.5908 15.8858 37.01C15.6132 37.4292 15.2257 37.7559 14.7723 37.9488C14.319 38.1418 13.8201 38.1922 13.3389 38.0939C12.8576 37.9955 12.4155 37.7528 12.0685 37.3963C11.7216 37.0398 11.4853 36.5856 11.3895 36.0911C11.2938 35.5967 11.3429 35.0841 11.5307 34.6184C11.7185 34.1526 12.0365 33.7545 12.4445 33.4744C12.8525 33.1943 13.3322 33.0448 13.8229 33.0448C14.4809 33.0448 15.112 33.3134 15.5772 33.7914C16.0425 34.2694 16.3039 34.9178 16.3039 35.5938ZM32.2534 33.0448C31.7627 33.0448 31.283 33.1943 30.875 33.4744C30.467 33.7545 30.149 34.1526 29.9612 34.6184C29.7734 35.0841 29.7243 35.5967 29.82 36.0911C29.9158 36.5856 30.1521 37.0398 30.499 37.3963C30.846 37.7528 31.2881 37.9955 31.7694 38.0939C32.2506 38.1922 32.7495 38.1418 33.2028 37.9488C33.6562 37.7559 34.0437 37.4292 34.3163 37.01C34.5889 36.5908 34.7344 36.098 34.7344 35.5938C34.7344 34.9178 34.473 34.2694 34.0078 33.7914C33.5425 33.3134 32.9114 33.0448 32.2534 33.0448ZM39.9623 9.66667L35.2838 26.4902C35.0469 27.327 34.5532 28.0627 33.8761 28.5877C33.1991 29.1127 32.375 29.3988 31.5268 29.4034H14.5495C13.7013 29.3988 12.8772 29.1127 12.2002 28.5877C11.5231 28.0627 11.0294 27.327 10.7925 26.4902L6.11397 9.70308V9.64846L4.37725 3.45798C4.36078 3.37934 4.31816 3.30905 4.2567 3.25921C4.19525 3.20936 4.11881 3.18308 4.04054 3.18487H1.0633C0.781294 3.18487 0.51084 3.06978 0.311433 2.86491C0.112026 2.66004 0 2.38217 0 2.09244C0 1.8027 0.112026 1.52484 0.311433 1.31997C0.51084 1.1151 0.781294 1 1.0633 1H4.04054C4.58119 1.00197 5.10664 1.18405 5.53802 1.5189C5.96939 1.85376 6.28342 2.32334 6.43296 2.85714L7.9393 8.28291H38.9345C39.0995 8.28291 39.2623 8.3224 39.41 8.39825C39.5576 8.47409 39.6861 8.58421 39.7851 8.71989C39.8832 8.85326 39.9501 9.00796 39.9809 9.1721C40.0116 9.33625 40.0052 9.50544 39.9623 9.66667ZM37.5345 10.4678H8.54183L12.8482 25.8894C12.9523 26.2709 13.1748 26.6072 13.4819 26.8471C13.7889 27.087 14.1637 27.2174 14.5495 27.2185H31.5268C31.9125 27.2174 32.2874 27.087 32.5944 26.8471C32.9015 26.6072 33.1239 26.2709 33.2281 25.8894L37.5345 10.4678Z" fill="#283270"/>
</svg>
