<svg width="40" height="40" viewBox="0 0 40 40" fill="none" xmlns="http://www.w3.org/2000/svg">
<path d="M17.9083 30.5145C10.9268 30.5145 5.30273 24.8905 5.30273 17.9089C5.30273 10.9274 10.9268 5.30334 17.9083 5.30334C24.8899 5.30334 30.5139 10.9274 30.5139 17.9089C30.5139 24.8905 24.8899 30.5145 17.9083 30.5145ZM17.9083 7.24266C11.9934 7.24266 7.24205 11.994 7.24205 17.9089C7.24205 23.8238 11.9934 28.5752 17.9083 28.5752C23.8232 28.5752 28.5746 23.8238 28.5746 17.9089C28.5746 11.994 23.8232 7.24266 17.9083 7.24266Z" fill="#283270"/>
<path d="M27.2969 25.9248L36.0044 34.6324L34.6333 36.0034L25.9258 27.2959L27.2969 25.9248Z" fill="#283270"/>
<path fill-rule="evenodd" clip-rule="evenodd" d="M5 17.9086C5 25.0575 10.7597 30.8172 17.9086 30.8172C21.0231 30.8172 23.874 29.724 26.0998 27.8989L34.6332 36.4324L36.4328 34.6327L27.8993 26.0993C29.7241 23.8736 30.8172 21.0229 30.8172 17.9086C30.8172 10.7597 25.0575 5 17.9086 5C10.7597 5 5 10.7597 5 17.9086ZM27.684 25.8839C29.4545 23.7139 30.5142 20.9392 30.5142 17.9086C30.5142 10.927 24.8901 5.30302 17.9086 5.30302C10.927 5.30302 5.30302 10.927 5.30302 17.9086C5.30302 24.8901 10.927 30.5142 17.9086 30.5142C20.9394 30.5142 23.7143 29.4543 25.8844 27.6836L25.4971 27.2963L27.2968 25.4967L27.684 25.8839ZM26.1178 27.4884L25.9257 27.2963L27.2968 25.9252L27.4889 26.1173C27.0677 26.6088 26.6093 27.0673 26.1178 27.4884ZM26.3327 27.7033C26.8233 27.2813 27.2817 26.8229 27.7037 26.3322L36.0043 34.6327L34.6332 36.0038L26.3327 27.7033ZM7.54536 17.9086C7.54536 12.161 12.161 7.54536 17.9086 7.54536C23.6562 7.54536 28.2718 12.161 28.2718 17.9086C28.2718 23.6562 23.6562 28.2718 17.9086 28.2718C12.161 28.2718 7.54536 23.6562 7.54536 17.9086ZM17.9086 7.24234C11.9937 7.24234 7.24234 11.9937 7.24234 17.9086C7.24234 23.8235 11.9937 28.5749 17.9086 28.5749C23.8235 28.5749 28.5749 23.8235 28.5749 17.9086C28.5749 11.9937 23.8235 7.24234 17.9086 7.24234Z" fill="#283270"/>
</svg>
