<svg width="24" height="24" viewBox="0 0 24 24" fill="none" xmlns="http://www.w3.org/2000/svg">
<g clip-path="url(#clip0_4988_5170)">
<path d="M18.0135 0C18.4095 0.0767039 18.819 0.114417 19.1996 0.2397C19.7223 0.411644 20.2385 0.618744 20.7279 0.868032C21.2001 1.10837 21.1822 1.53344 20.7235 1.79871C19.3992 2.56447 18.0743 3.32959 16.7455 4.08704C16.5958 4.17205 16.5466 4.26601 16.5479 4.4354C16.5562 5.37247 16.5562 6.30953 16.5479 7.2466C16.5466 7.41471 16.5901 7.50995 16.7449 7.59368C17.5619 8.03473 18.3743 8.486 19.1823 8.94303C19.325 9.02357 19.4241 9.01079 19.5598 8.92897C20.71 8.23672 21.8648 7.55277 23.0195 6.86691C23.1001 6.81897 23.189 6.78574 23.2671 6.7346C23.6305 6.49873 24.0361 6.71542 23.9983 7.23381C23.9452 7.95099 23.7354 8.62982 23.4245 9.27158C22.4169 11.349 20.7631 12.6229 18.4927 12.9962C16.4999 13.3235 14.6977 12.8115 13.17 11.45C12.1208 10.5148 11.3774 9.38791 11.0979 7.99957C10.6654 5.85187 11.0921 3.90742 12.5661 2.23975C13.5366 1.14225 14.7252 0.407809 16.1749 0.125283C16.4269 0.0767039 16.6816 0.0415479 16.9349 0C17.2944 0 17.654 0 18.0142 0H18.0135Z" fill="#283270"/>
<path d="M0.000639744 20.4825C0.0588565 19.7481 0.530348 19.2687 1.01783 18.7829C4.11867 15.6962 7.21056 12.6018 10.3044 9.50809C10.3696 9.44289 10.4195 9.36299 10.5065 9.25049C11.3657 11.264 12.7571 12.6561 14.725 13.4935C14.6546 13.5696 14.6047 13.6264 14.5516 13.6795C11.3299 16.8991 8.10812 20.1188 4.88573 23.3372C4.17177 24.0499 3.31579 24.1962 2.50204 23.7328C2.32803 23.6337 2.17001 23.4982 2.02607 23.3576C1.66333 23.0022 1.32107 22.6257 0.955138 22.2742C0.486845 21.8248 0.0601359 21.3576 0 20.6691V20.4819L0.000639744 20.4825ZM5.31563 19.624C5.31244 19.1082 4.88637 18.6927 4.36817 18.7004C3.86469 18.7074 3.45334 19.1306 3.45654 19.6375C3.45974 20.1386 3.88261 20.5637 4.38097 20.5675C4.88573 20.5713 5.31883 20.1348 5.31563 19.624Z" fill="#283270"/>
</g>
<defs>
<clipPath id="clip0_4988_5170">
<rect width="24" height="24" fill="white"/>
</clipPath>
</defs>
</svg>
